<svg viewBox="0 0 500 500" xmlns="http://www.w3.org/2000/svg">
  <defs></defs>
  <path d="M 299.045 250 L 250 200.955 L 200.955 250 L 250 299.045 L 299.045 250 Z" fill="#15FFFF"></path>
  <path d="M 286.784 250 L 250 213.216 L 213.216 250 L 250 286.784 L 286.784 250 Z" style="fill: rgb(255, 255, 255);"></path>
  <path d="M 238.5 250 L 203.76 215.26 L 169.02 250 L 203.76 284.74 L 238.5 250 Z" fill="#6B68FD"></path>
  <path d="M 226.239 250 L 203.76 227.521 L 181.281 250 L 203.76 272.479 L 226.239 250 Z" style="fill: rgb(255, 255, 255);"></path>
  <path d="M 330.98 250 L 296.24 215.26 L 261.5 250 L 296.24 284.74 L 330.98 250 Z" fill="#6B68FD"></path>
  <path d="M 318.719 250 L 296.24 227.521 L 273.761 250 L 296.24 272.479 L 318.719 250 Z" style="fill: rgb(255, 255, 255);"></path>
  <path d="M 225.858 237.358 L 219.713 231.232 L 213.581 237.355 L 219.735 243.548 L 225.858 237.358 Z" fill="#6B68FD"></path>
  <path d="M 233.056 244.546 L 225.857 237.358 L 219.735 243.547 L 226.926 250.676 L 233.056 244.546 Z" fill="#6B68FD"></path>
  <path d="M 233.019 255.42 L 226.889 249.289 L 220.788 255.446 L 226.889 261.55 L 233.019 255.42 Z" fill="#6B68FD"></path>
  <path d="M 219.737 243.548 L 213.648 237.409 L 207.165 243.878 L 213.295 250.009 L 219.737 243.548 Z" fill="#15FFFF"></path>
  <path d="M 213.733 250.446 L 207.133 243.845 L 200.929 250.049 L 207.531 256.648 L 213.733 250.446 Z" fill="#15FFFF"></path>
  <path d="M 219.749 256.496 L 213.725 250.441 L 207.501 256.618 L 213.621 262.627 L 219.749 256.496 Z" fill="#15FFFF"></path>
  <path d="M 226.118 262.902 L 219.428 256.335 L 213.338 262.349 L 220.02 269.054 L 226.118 262.902 Z" fill="#15FFFF"></path>
  <path d="M 273.15 236.368 L 280.638 243.816 L 286.931 237.841 L 279.223 230.178 L 273.15 236.368 Z" style="fill: rgb(21, 255, 255);" fill="#15FFFF"></path>
  <path d="M 280.29 243.469 L 286.165 249.339 L 292.296 243.208 L 286.424 237.334 L 280.29 243.469 Z" fill="#15FFFF"></path>
  <path d="M 286.135 249.348 L 292.735 255.949 L 298.939 249.745 L 292.338 243.145 L 286.135 249.348 Z" fill="#15FFFF"></path>
  <path d="M 280.057 256.302 L 286.231 262.454 L 292.705 255.916 L 286.574 249.785 L 280.057 256.302 Z" fill="#15FFFF"></path>
  <path d="M 274.003 262.377 L 280.134 268.508 L 286.204 262.44 L 280.065 256.309 L 274.003 262.377 Z" fill="#6D6BFF"></path>
</svg>